<?xml version="1.0" standalone="no"?>
<!DOCTYPE svg PUBLIC "-//W3C//DTD SVG 20010904//EN"
 "http://www.w3.org/TR/2001/REC-SVG-20010904/DTD/svg10.dtd">
<svg version="1.0" xmlns="http://www.w3.org/2000/svg"
 width="906.000000pt" height="791.000000pt" viewBox="0 0 906.000000 791.000000"
 preserveAspectRatio="xMidYMid meet">
<metadata>
Created by potrace 1.16, written by Peter Selinger 2001-2019
</metadata>
<g transform="translate(0.000000,791.000000) scale(0.100000,-0.100000)"
fill="#000000" stroke="none">
<path d="M4221 7549 c-167 -10 -306 -21 -308 -23 -10 -9 20 -421 31 -428 6 -4
129 -55 274 -114 l262 -107 0 -62 c0 -34 3 -83 6 -107 l6 -46 -153 -6 c-85 -4
-166 -9 -181 -12 -26 -5 -27 -4 -30 47 l-3 52 -80 -2 c-44 -1 -83 -5 -86 -9
-5 -6 8 -262 13 -268 4 -3 692 37 696 40 3 4 -26 498 -30 501 -2 1 -122 48
-268 105 -146 57 -266 104 -267 104 -1 1 -5 36 -9 77 l-7 76 139 7 c77 4 158
9 182 13 l42 5 0 -45 c0 -25 3 -48 8 -50 4 -3 42 -2 85 0 l77 6 0 57 c0 31 -3
91 -6 133 l-7 77 -41 -1 c-23 -1 -178 -10 -345 -20z"/>
<path d="M5305 7448 c-29 -75 -324 -992 -321 -995 3 -3 124 -44 270 -92 147
-48 263 -90 260 -94 -4 -3 28 -23 69 -44 42 -20 78 -35 81 -33 2 3 110 218
240 478 l236 472 -75 37 c-41 20 -76 35 -79 33 -2 -3 -101 -198 -220 -435
-119 -236 -214 -421 -211 -410 23 74 35 65 -165 130 -101 33 -184 65 -187 71
-2 6 57 197 132 423 74 227 133 416 130 421 -6 9 -126 50 -146 50 -5 0 -12 -6
-14 -12z"/>
<path d="M3340 7375 c-63 -23 -163 -58 -221 -79 l-106 -37 -30 -69 -31 -70
112 -317 112 -317 44 -26 c25 -14 101 -56 170 -92 l125 -65 184 66 184 66 33
66 33 67 -130 368 c-71 202 -130 369 -132 370 -6 5 -133 67 -179 87 l-53 24
-115 -42z m314 -484 c90 -257 107 -314 95 -321 -8 -5 -61 -26 -119 -46 l-105
-37 -104 55 -104 55 -89 253 c-49 140 -87 259 -84 265 2 6 75 37 162 67 l159
55 39 -17 40 -17 110 -312z"/>
<path d="M3410 6944 c-36 -14 -67 -27 -68 -29 -5 -5 38 -138 49 -149 10 -12
161 44 156 58 -2 6 -14 41 -26 79 -13 37 -28 67 -34 66 -7 0 -41 -12 -77 -25z"/>
<path d="M2364 6872 c-159 -114 -288 -212 -286 -217 5 -17 607 -854 614 -855
16 -1 137 94 132 102 -4 5 -55 78 -115 161 -60 83 -107 152 -105 154 2 3 123
-19 268 -48 l264 -53 82 58 c45 31 82 60 82 64 0 4 -136 29 -303 56 -166 27
-306 52 -311 57 -5 4 40 95 103 205 61 109 110 203 107 208 -11 25 -223 310
-232 313 -6 2 -141 -90 -300 -205z m299 -75 c21 -30 37 -56 37 -59 0 -18 -204
-378 -210 -371 -4 4 -46 63 -95 131 -82 116 -86 124 -69 137 11 7 82 58 159
114 77 56 140 101 141 101 0 0 17 -24 37 -53z"/>
<path d="M6355 6969 c-33 -5 -63 -10 -66 -11 -4 -2 -100 -124 -214 -272 l-207
-268 16 -186 c8 -102 19 -189 23 -193 4 -4 75 -60 157 -123 l150 -116 55 7
c31 3 65 9 77 14 12 4 127 145 257 313 l236 306 -14 112 c-8 61 -15 117 -15
123 0 12 -375 306 -388 304 -4 -1 -34 -5 -67 -10z m167 -275 c132 -102 137
-107 144 -149 l6 -43 -196 -256 c-109 -140 -201 -258 -207 -262 -5 -3 -53 28
-107 69 -109 84 -106 77 -113 239 l-4 77 165 215 c91 118 167 215 170 216 3 0
67 -48 142 -106z"/>
<path d="M6266 6455 c-27 -36 -47 -67 -45 -69 16 -16 124 -96 129 -96 8 0 104
130 99 134 -2 1 -32 24 -66 49 -34 26 -63 47 -65 47 -2 0 -25 -30 -52 -65z"/>
<path d="M1872 6455 c-28 -35 -52 -68 -52 -73 0 -5 47 -95 105 -201 58 -106
105 -194 105 -195 0 -2 -96 27 -212 65 -117 38 -216 69 -219 69 -10 0 -112
-131 -106 -137 4 -3 146 -45 316 -93 l310 -88 176 -147 c98 -81 180 -143 184
-138 101 118 104 123 88 136 -9 7 -90 73 -180 147 l-164 135 -144 288 c-79
159 -146 290 -149 292 -3 2 -29 -25 -58 -60z"/>
<path d="M6718 6062 c-235 -169 -428 -309 -428 -312 0 -10 90 -130 98 -130 4
0 149 101 322 225 173 123 315 223 317 221 2 -1 -69 -153 -158 -337 -89 -184
-176 -366 -194 -406 l-33 -71 47 -66 47 -65 415 295 c228 163 422 304 432 313
16 16 15 20 -27 80 -25 35 -47 65 -49 67 -2 2 -139 -92 -303 -210 -164 -118
-300 -213 -302 -212 -1 2 70 154 158 337 89 184 170 355 182 381 l20 47 -54
75 c-29 42 -55 75 -58 75 -3 0 -197 -139 -432 -307z"/>
<path d="M1221 5490 c-85 -182 -152 -332 -150 -334 2 -2 112 -54 243 -115 180
-84 242 -108 248 -99 4 7 7 49 6 92 l-3 79 -132 61 c-73 34 -133 66 -133 72 0
6 34 83 75 170 41 87 77 164 78 169 2 6 31 -3 65 -19 l62 -30 0 -310 0 -311
195 -90 c107 -49 192 -91 188 -92 -5 -1 -99 12 -210 31 -184 30 -204 31 -217
17 -7 -9 -82 -119 -165 -244 -96 -143 -157 -227 -165 -224 -7 3 -38 8 -70 12
-31 4 -58 10 -60 14 -3 4 8 83 22 176 l27 170 48 -3 c26 -2 47 -2 48 0 0 1 6
38 13 81 9 56 10 80 2 82 -24 8 -205 35 -230 35 -14 0 -26 -3 -26 -7 0 -5 -23
-157 -52 -340 -29 -183 -50 -334 -47 -337 8 -9 400 -68 413 -63 8 3 86 112
176 242 121 177 166 235 178 231 9 -2 56 -10 105 -17 48 -7 87 -17 87 -23 0
-6 -12 -86 -26 -179 -23 -142 -29 -167 -43 -163 -9 3 -32 6 -51 8 l-35 3 -12
-80 c-8 -54 -9 -81 -2 -86 14 -8 249 -43 254 -37 3 3 30 158 60 346 46 286 59
352 85 408 16 36 28 70 25 74 -2 4 -81 42 -175 86 l-170 79 0 311 0 311 -177
82 c-98 46 -182 85 -188 87 -5 2 -79 -144 -164 -326z"/>
<path d="M7621 5494 c-36 -13 -66 -26 -68 -27 -1 -2 17 -56 41 -120 24 -64 40
-119 35 -122 -4 -3 -191 -73 -414 -155 -224 -81 -409 -150 -411 -153 -4 -4 43
-144 52 -156 2 -2 190 65 419 149 232 85 420 149 424 144 5 -5 25 -57 46 -116
21 -60 43 -108 50 -108 7 0 41 11 76 24 47 18 64 29 64 42 0 11 -49 155 -110
321 -78 215 -114 303 -125 302 -8 0 -44 -11 -79 -25z"/>
<path d="M7533 4611 l-311 -26 -84 -90 c-46 -50 -105 -113 -131 -141 l-47 -51
15 -184 c9 -101 16 -189 18 -195 1 -6 28 -34 60 -60 l57 -49 386 31 c280 23
389 35 399 45 63 66 155 184 155 197 0 9 -9 115 -19 234 l-19 217 -36 32 c-67
58 -84 69 -108 68 -12 -1 -163 -14 -335 -28z m325 -289 c17 -198 16 -216 -12
-249 l-24 -27 -328 -27 c-181 -15 -331 -25 -333 -23 -3 3 -9 60 -14 129 l-10
124 78 85 c65 72 82 86 109 87 17 0 123 8 236 18 113 10 223 19 246 20 l41 1
11 -138z"/>
<path d="M7471 4313 l-44 -4 7 -61 c3 -34 6 -72 6 -84 0 -22 4 -24 54 -24 29
0 68 3 85 6 35 7 37 19 25 122 l-7 52 -41 -2 c-23 -1 -61 -3 -85 -5z"/>
<path d="M6995 3798 c-15 -62 -133 -663 -131 -666 2 -1 112 -24 245 -51 l242
-48 52 71 c29 39 106 144 171 234 65 89 122 162 128 162 6 0 39 -5 74 -12 47
-8 64 -16 64 -27 -2 -42 -68 -336 -76 -335 -5 1 -25 4 -45 8 l-37 6 -16 -71
c-9 -39 -16 -77 -16 -84 0 -8 42 -20 113 -34 61 -12 119 -24 128 -27 14 -4 26
47 84 336 37 187 66 343 63 345 -4 5 -392 85 -409 85 -4 0 -84 -103 -179 -230
-132 -177 -177 -230 -194 -230 -11 1 -59 9 -106 19 -61 12 -84 21 -83 32 1 8
16 87 34 176 l32 162 31 -6 c67 -14 69 -13 82 52 23 107 29 99 -98 124 -62 12
-121 24 -130 27 -12 4 -19 -2 -23 -18z"/>
<path d="M1703 3567 c-122 -35 -226 -66 -230 -71 -4 -4 -28 -134 -53 -289
l-45 -281 -72 -22 -73 -22 -15 51 c-8 29 -30 107 -48 174 l-34 121 43 12 c24
7 44 17 44 21 0 11 -38 151 -42 155 -2 1 -60 -13 -130 -33 l-126 -35 17 -61
c10 -34 51 -183 92 -331 41 -147 79 -270 86 -273 11 -4 383 94 400 106 5 3 31
134 59 291 l49 285 90 27 c50 15 97 27 105 27 11 1 27 -42 59 -162 24 -89 44
-166 45 -171 0 -4 -21 -15 -47 -23 -36 -10 -47 -18 -43 -29 3 -9 14 -45 23
-81 19 -72 9 -67 99 -46 19 4 35 -18 123 -170 l101 -174 -14 -67 c-7 -37 -15
-69 -17 -71 -11 -10 -541 -316 -544 -313 -2 2 -58 98 -125 213 -67 116 -126
214 -130 218 -4 4 -39 -11 -78 -33 -67 -39 -71 -43 -60 -63 33 -63 263 -454
275 -469 8 -9 45 -24 83 -33 l68 -17 314 182 c172 101 320 190 329 199 10 10
27 70 43 158 l26 143 -109 188 -110 188 -89 319 c-60 217 -93 321 -103 322 -8
1 -114 -26 -236 -60z"/>
<path d="M6766 2666 l-159 -21 -37 -50 c-20 -28 -68 -97 -108 -155 l-71 -105
14 -74 c8 -41 16 -75 17 -76 126 -89 781 -535 786 -535 4 0 27 30 51 66 39 56
43 66 30 78 -8 8 -173 123 -366 256 -194 133 -353 244 -353 246 0 3 116 172
125 182 5 5 188 32 222 32 31 0 93 -40 520 -336 l92 -64 46 66 c25 37 45 70
43 75 -2 4 -144 105 -317 223 -252 174 -320 216 -345 215 -17 -1 -103 -11
-190 -23z"/>
<path d="M2100 2060 c-217 -187 -396 -345 -397 -352 -2 -7 21 -39 50 -70 l52
-58 385 331 c212 181 393 338 402 347 17 16 15 20 -33 77 -29 33 -54 61 -58
62 -3 1 -184 -151 -401 -337z"/>
<path d="M2453 2039 l-152 -189 48 -103 c27 -56 84 -174 129 -262 l80 -160
-40 -50 c-22 -28 -43 -54 -48 -59 -5 -5 -70 41 -149 104 l-140 113 29 35 c21
26 26 39 19 48 -16 20 -119 97 -123 93 -25 -27 -156 -194 -156 -199 0 -5 462
-385 521 -428 16 -11 33 6 153 155 l135 166 -23 46 c-58 115 -226 471 -226
480 0 5 29 45 65 90 l65 80 138 -110 c75 -61 138 -112 140 -114 1 -1 -12 -19
-29 -41 l-31 -39 49 -43 c81 -72 73 -74 160 33 43 53 78 102 78 109 0 14 -513
436 -530 435 -5 0 -78 -85 -162 -190z"/>
<path d="M5997 1979 c-82 -67 -152 -131 -156 -143 -5 -11 -10 -47 -13 -78 l-5
-57 234 -288 c129 -158 242 -296 251 -305 12 -12 50 -20 138 -29 l121 -12 181
148 c100 81 183 155 186 164 3 9 6 44 8 77 l3 62 -206 254 c-114 139 -213 258
-220 264 -8 6 -81 21 -164 33 -82 12 -163 24 -180 27 -26 4 -48 -10 -178 -117z
m330 -77 l101 -17 171 -210 c94 -115 171 -213 171 -217 0 -3 -59 -54 -130
-113 -130 -106 -131 -106 -179 -103 l-49 3 -206 254 c-114 140 -205 257 -204
261 7 17 192 160 207 159 9 0 62 -8 118 -17z"/>
<path d="M6343 1658 c-70 -57 -70 -53 0 -133 l44 -49 62 49 c33 28 61 54 61
58 0 10 -92 126 -100 126 -3 0 -33 -23 -67 -51z"/>
<path d="M5648 1754 c-38 -19 -68 -39 -68 -45 0 -12 477 -909 491 -924 8 -8
114 40 142 65 8 7 -482 940 -493 939 -3 0 -35 -16 -72 -35z"/>
<path d="M3236 1508 l-98 -213 -239 -209 c-132 -114 -239 -211 -239 -215 0 -4
34 -24 76 -44 l77 -36 159 152 c88 84 164 154 170 156 6 2 8 -5 5 -15 -3 -11
-8 -93 -12 -184 -3 -91 -8 -184 -12 -207 l-5 -43 77 -35 c43 -19 81 -35 85
-35 4 0 10 148 14 329 l7 329 95 207 c53 114 94 208 92 210 -6 5 -141 65 -147
65 -4 0 -51 -96 -105 -212z"/>
<path d="M3655 1548 c-6 -21 -175 -1003 -175 -1020 0 -16 56 -33 134 -40 l30
-3 36 208 c20 114 39 209 41 210 2 2 93 -12 202 -31 160 -29 197 -39 197 -52
0 -9 -16 -103 -35 -210 -18 -107 -33 -196 -31 -197 6 -6 159 -33 163 -29 7 7
183 1030 179 1041 -3 10 -154 41 -161 33 -1 -2 -19 -102 -40 -223 -21 -121
-39 -222 -41 -224 -8 -9 -404 64 -404 74 0 6 15 98 34 205 19 107 36 206 38
220 3 23 -1 25 -67 37 -90 15 -95 15 -100 1z"/>
<path d="M5026 1509 c-38 -5 -72 -11 -74 -14 -3 -3 5 -91 17 -196 12 -105 21
-192 19 -194 -2 -1 -121 -75 -266 -165 -250 -154 -263 -164 -258 -189 3 -14
12 -91 21 -171 8 -80 17 -159 20 -176 l5 -30 363 41 362 41 -2 24 c-9 99 -55
498 -58 508 -4 9 -24 3 -72 -24 -38 -20 -73 -42 -79 -48 -9 -8 -7 -49 5 -158
l17 -147 -26 -5 c-62 -12 -351 -39 -357 -33 -3 4 -6 35 -7 69 l-1 62 250 153
c138 84 254 154 259 156 9 3 -39 481 -50 499 -3 4 -8 7 -12 7 -4 -1 -38 -6
-76 -10z"/>
<path d="M5446 1294 c-109 -41 -201 -76 -204 -79 -8 -8 41 -147 53 -151 8 -4
384 128 407 142 7 5 -38 142 -51 155 -3 3 -96 -27 -205 -67z"/>
</g>
</svg>
